<svg width="124" height="129" viewBox="0 0 124 129" fill="none" xmlns="http://www.w3.org/2000/svg">
<path d="M16.0483 54.205C19.2649 54.8998 22.6744 55.6591 24.0241 57.2586C26.6974 60.4253 28.4854 59.6659 32.3243 61.1039C34.4191 61.8874 34.831 66.8556 37.1449 70.1757C39.0732 72.9385 42.3249 75.0954 46.1901 75.2085C48.1709 75.2731 52.1852 74.8288 55.8751 72.4861C58.2767 70.9593 59.8631 67.7038 62.5538 65.555C64.9378 63.6485 67.243 61.4593 69.6094 59.2943C71.9584 57.1374 75.2977 55.8045 77.41 53.5992C79.7239 51.1757 81.5295 48.4695 83.2649 46.2399C85.6401 43.1702 85.8943 39.8904 86.4903 37.7981C87.358 34.7607 87.0337 32.3372 85.2983 29.4533C83.817 26.9975 82.029 24.4367 79.5924 22.0213C77.375 19.824 75.6921 16.9562 73.3607 14.7347C70.968 12.4486 68.9959 10.0574 67.1553 7.68242C64.561 4.33803 62.3347 2.01149 60.3627 0.68666C57.8297 -1.01785 54.7532 0.937086 50.4498 1.34908C47.8905 1.59142 44.5686 0.54933 40.5018 1.14712C36.7856 1.69644 33.3235 2.21345 30.4925 3.48173C27.2671 4.91966 23.7437 6.13948 21.2282 8.11865C18.59 10.1948 17.0913 13.4341 14.7248 15.6314C12.2882 17.8933 10.3863 20.7126 7.67795 22.5868C5.28519 24.2428 3.1203 25.9958 2.48048 28.6132C1.87571 31.0689 2.39283 33.864 2.78724 36.5541C3.17289 39.236 3.94419 41.8776 4.80313 44.2042C6.04772 47.5647 8.41419 49.5843 9.29943 50.691C10.6843 52.4117 12.9017 53.5184 16.0483 54.205Z" fill="#E3ECFF"/>
<path d="M89.9428 45.7789C88.2863 47.75 90.6878 50.545 93.773 52.9766C96.2359 54.9153 98.9266 57.0237 100.645 58.5586C101.977 59.738 103.923 62.4685 106.079 65.5624C107.823 68.0505 110.198 70.3609 112.196 72.2592C114.922 74.8604 117.385 75.9591 120.023 73.8264C123.547 70.9829 124.485 67.5416 123.144 64.1406C121.838 60.8205 118.647 57.7508 115.86 55.6585C114.055 54.3095 111.469 51.886 108.226 50.0442C105.448 48.4689 101.994 47.6288 99.2159 46.5544C95.0965 44.9468 91.3715 44.0825 89.9428 45.7789Z" fill="#E3ECFF"/>
<path d="M100.706 82.9795C96.814 79.1101 93.0101 76.3474 92.642 75.7496C89.7146 70.9754 85.7266 75.0145 83.9561 78.9566C83.2024 80.6288 84.3243 83.7712 87.1728 87.5437C89.0309 89.9994 90.8452 93.0126 93.0539 95.6218C95.4029 98.4169 98.1199 100.792 99.7502 103.062C102.274 106.568 105.561 107.674 108.077 107.109C111.022 106.455 113.432 103.417 113.3 100C113.222 97.8595 111.197 94.2162 108.217 90.7103C105.973 88.0768 103.16 85.411 100.706 82.9795Z" fill="#E3ECFF"/>
<path d="M86.9814 66.952C87.6738 64.7709 87.5598 62.3716 86.7973 60.2471C85.7368 57.2743 83.7647 54.7619 82.0644 55.3113C79.1457 56.2645 73.5538 59.0596 75.5083 64.1408C76.4637 66.6531 78.3919 69.8036 80.7496 71.0719C83.1687 72.3806 85.4738 71.702 86.9814 66.952Z" fill="#E3ECFF"/>
<path d="M89.1453 102.23C87.9445 99.7742 87.366 96.8579 85.9987 94.3052C84.6314 91.7606 82.4929 89.5552 81.0905 87.1883C79.5041 84.5225 77.9352 82.0263 76.4715 79.9502C74.0524 76.5089 71.8262 73.7219 70.4238 73.3261C66.5761 72.2597 63.4471 74.1823 63.1929 77.6156C63.0439 79.6432 63.1754 82.818 64.6216 86.227C65.5945 88.5373 68.9952 90.9608 70.8533 94.4425C72.3521 97.2457 72.5537 100.954 74.2891 103.87C76.0858 106.899 79.5567 108.951 81.2833 111.471C84.0267 115.462 85.7621 118.516 87.2346 119.162C91.6257 121.093 93.8081 123.896 95.8065 118.37C96.1045 117.522 93.3085 114.477 91.5643 110.357C90.5915 108.062 90.5038 105.009 89.1453 102.23Z" fill="#E3ECFF"/>
<path d="M56.348 88.497C55.4627 85.3869 55.0157 82.4383 53.8851 80.3299C51.764 76.3877 49.1083 76.8724 47.408 79.9259C46.2861 81.9374 47.1538 85.3546 46.6542 88.1577C46.0932 91.3083 45.2343 94.2326 45.9004 95.9856C46.7155 98.094 47.8725 101.067 49.3011 104.298C50.4668 106.932 52.2724 109.573 53.4819 112.336C54.7703 115.309 54.5249 118.694 55.4627 121.125C56.5145 123.872 58.32 125.754 59.512 126.998C61.563 129.131 64.4992 129.414 66.6728 127.854C68.0051 126.893 67.8911 123.298 66.9884 119.768C66.3836 117.377 65.9629 114.533 65.0864 112.11C63.9295 108.935 60.9319 106.665 60.5287 105.284C60.073 103.717 61.0371 100.186 60.2132 96.5026C59.6172 93.8287 57.1368 91.2759 56.348 88.497Z" fill="#E3ECFF"/>
<path d="M6.31938 98.6753C9.08903 99.5477 12.3232 98.9257 14.8387 96.2357C16.6354 94.3211 17.3454 90.7263 17.1701 86.6387C17.0211 83.359 16.4339 79.7884 15.61 76.654C14.3566 71.8636 12.5073 68.083 11.2013 67.6226C8.84362 66.7824 6.66997 69.7391 4.91702 73.9478C3.77761 76.6863 3.13779 79.9984 2.41032 83.0358C1.45496 87.0426 0.00878324 90.6213 1.85254e-05 92.2369C-0.00874619 94.7735 3.09396 97.6574 6.31938 98.6753Z" fill="#E3ECFF"/>
</svg>
