<svg width="89" height="89" viewBox="0 0 89 89" fill="none" xmlns="http://www.w3.org/2000/svg">
<g clip-path="url(#clip0_61_221)">
<path d="M76.7369 47.5349C74.415 47.3418 71.9453 47.123 70.8336 46.1382C68.6172 44.1815 67.4563 44.8702 64.6137 44.2201C63.0657 43.8661 62.2425 40.4548 60.2654 38.363C58.6189 36.6187 56.114 35.4151 53.4051 35.6854C52.012 35.8206 49.2538 36.4964 46.9249 38.4595C45.4051 39.7339 44.6522 42.1412 42.9987 43.8726C41.5352 45.4109 40.1631 47.1359 38.7348 48.8608C37.3276 50.5665 35.1323 51.7959 33.901 53.5144C32.536 55.4132 31.565 57.4471 30.594 59.1592C29.2642 61.502 29.4401 63.7999 29.2501 65.306C28.9687 67.4944 29.4541 69.1486 30.981 70.9894C32.2756 72.5599 33.8025 74.1754 35.7726 75.6301C37.5527 76.956 39.0374 78.7904 40.909 80.1227C42.8298 81.4937 44.4622 82.9741 46.0102 84.4545C48.1843 86.5334 49.9926 87.9495 51.5054 88.6897C53.4614 89.6487 55.4034 88.0074 58.3726 87.3316C60.1317 86.9325 62.5662 87.3509 65.3454 86.5656C67.8855 85.8512 70.2496 85.1818 72.1001 84.0425C74.1969 82.7488 76.5258 81.5902 78.0738 79.9876C79.6991 78.3012 80.3957 75.9197 81.817 74.1754C83.2735 72.3861 84.2937 70.2621 85.9894 68.7109C87.4881 67.3464 88.8109 65.9368 88.9798 64.0638C89.1346 62.3002 88.4732 60.4079 87.9103 58.5799C87.3544 56.7455 86.5242 54.9883 85.6728 53.45C84.4485 51.2295 82.5769 50.0451 81.8311 49.3564C80.6842 48.288 79.0096 47.7216 76.7369 47.5349Z" fill="#FDB1F3"/>
<path d="M25.9713 60.0796C26.9212 58.567 24.937 56.8356 22.5236 55.4324C20.5886 54.3125 18.4848 53.0896 17.1128 52.182C16.0574 51.4869 14.4039 49.7619 12.5604 47.8181C11.0758 46.2476 9.16901 44.8573 7.56477 43.7181C5.37653 42.1669 3.5401 41.6198 1.92179 43.3448C-0.231261 45.6362 -0.519742 48.1142 0.781941 50.3476C2.05548 52.536 4.61663 54.3769 6.7908 55.5741C8.19099 56.3464 10.2666 57.7946 12.7293 58.7794C14.8401 59.6226 17.352 59.8865 19.4066 60.3821C22.4603 61.1223 25.1551 61.3862 25.9713 60.0796Z" fill="#FDB1F3"/>
<path d="M14.4461 35.2412C17.5842 37.5777 20.5394 39.1417 20.863 39.5279C23.4171 42.5724 25.7742 39.412 26.5904 36.5156C26.9352 35.2798 25.8094 33.2009 23.4171 30.8451C21.8481 29.3068 20.2579 27.3823 18.4356 25.7668C16.4865 24.0482 14.3335 22.6451 12.9474 21.2162C10.8084 19.0085 8.395 18.5451 6.69929 19.163C4.70807 19.8838 3.3501 22.2138 3.80744 24.5696C4.08889 26.05 5.89717 28.3928 8.35982 30.5555C10.2103 32.1839 12.4689 33.7737 14.4461 35.2412Z" fill="#FDB1F3"/>
<path d="M25.7672 45.1213C25.5209 46.6918 25.8516 48.346 26.6186 49.7556C27.681 51.7187 29.3275 53.2892 30.4603 52.7485C32.3952 51.8217 36.0048 49.3758 34.0909 46.0288C33.1481 44.3747 31.4665 42.3601 29.6793 41.6907C27.8499 41.0084 26.309 41.6842 25.7672 45.1213Z" fill="#FDB1F3"/>
<path d="M20.4549 20.8301C21.5596 22.4327 22.2773 24.4023 23.5086 26.0436C24.7399 27.6849 26.4708 29.0237 27.7092 30.5362C29.1023 32.2483 30.4674 33.8381 31.7127 35.1447C33.7743 37.3138 35.6319 39.0452 36.6591 39.1933C39.4666 39.5859 41.4437 37.9639 41.2537 35.5631C41.1341 34.1407 40.7049 31.9523 39.3329 29.7124C38.3971 28.1998 35.7656 26.8224 34.091 24.5761C32.74 22.7674 32.1982 20.2122 30.6714 18.3456C29.0883 16.4082 26.4427 15.3011 24.9581 13.7049C22.615 11.1818 21.0671 9.22512 19.9765 8.90973C16.6976 7.96357 14.8683 6.21929 14.0661 10.2356C13.9395 10.8535 16.2262 12.7072 17.8868 15.4106C18.8155 16.9167 19.2095 19.0278 20.4549 20.8301Z" fill="#FDB1F3"/>
<path d="M44.8703 27.3888C45.8202 29.4677 46.4534 31.4695 47.4737 32.834C49.3805 35.3764 51.1817 34.8036 52.0401 32.5251C52.61 31.0254 51.632 28.734 51.6813 26.7387C51.7376 24.5052 52.026 22.4005 51.3646 21.2419C50.5766 19.8517 49.4438 17.895 48.0928 15.7838C46.9952 14.0589 45.4473 12.3918 44.3144 10.5832C43.0831 8.63936 42.8932 6.27074 41.9785 4.66163C40.9441 2.85299 39.4806 1.71373 38.5167 0.95423C36.8491 -0.345935 34.7664 -0.268697 33.4155 1.01216C32.5852 1.79741 33.0566 4.28188 34.0628 6.6505C34.7453 8.25317 35.3434 10.1905 36.2159 11.7932C37.3698 13.8915 39.7058 15.1917 40.135 16.1185C40.6275 17.1677 40.339 19.7036 41.303 22.1817C42.0066 23.9839 44.0189 25.5286 44.8703 27.3888Z" fill="#FDB1F3"/>
<path d="M78.7563 15.7837C76.7228 15.4297 74.5276 16.157 73.0641 18.2489C72.0086 19.7421 71.8961 22.2974 72.466 25.123C72.9163 27.3822 73.7114 29.8088 74.6261 31.9135C76.0192 35.1188 77.722 37.5776 78.6789 37.7771C80.4239 38.1504 81.627 35.8977 82.401 32.8146C82.9006 30.8129 82.992 28.4571 83.1679 26.288C83.4142 23.4174 84.0404 20.7977 83.8645 19.6778C83.5972 17.9206 81.1275 16.2021 78.7563 15.7837Z" fill="#FDB1F3"/>
</g>
<defs>
<clipPath id="clip0_61_221">
<rect width="89" height="89" fill="white" transform="translate(0.000915527)"/>
</clipPath>
</defs>
</svg>
