<svg width="177" height="318" viewBox="0 0 177 318" fill="none" xmlns="http://www.w3.org/2000/svg">
<path fill-rule="evenodd" clip-rule="evenodd" d="M124.504 214.129C123.018 219.141 120.14 225.726 121.753 231.291C122.069 231.437 122.575 231.174 122.733 231.553C124.062 234.379 121.405 230.941 127.066 232.806C127.224 232.864 127.603 232.923 127.793 233.097C115.143 271.587 164.288 266.255 158.153 295.683C155.971 306.26 148.918 310.572 146.673 317.74C149.203 317.157 149.266 317.769 152.65 313.515C162.201 301.598 165.964 285.106 153.219 274.035C139.621 262.205 131.335 260.894 129.501 249.647C128.805 245.422 129.09 237.177 130.576 233.331C133.486 225.697 151.543 226.6 129.564 212.877C141.613 204.631 144.523 204.369 153.852 189.596C159.924 179.981 165.047 169.113 169 157.167C184.306 111.044 177.665 49.5943 133.549 17.6896C115.396 4.54893 83.8669 -6.93094 55.2468 5.01512C31.149 15.0964 16.0641 30.0727 6.73491 54.0522C-15.9714 112.355 21.1556 178.583 81.9062 206.263C97.7816 213.488 105.466 213.081 124.441 214.188L124.504 214.129Z" fill="#FFC305" fill-opacity="0.5"/>
</svg>
