<svg width="124" height="109" viewBox="0 0 124 109" fill="none" xmlns="http://www.w3.org/2000/svg">
<g clip-path="url(#clip0_61_202)">
<path d="M61.4756 91.4388C61.4756 88.657 61.4756 85.6856 62.7334 84.2525C65.2492 81.3653 64.1285 80.0587 64.7003 76.6025C65.0205 74.7269 69.7318 73.3149 72.4533 70.7228C74.7175 68.5311 76.1126 65.4121 75.4036 62.2088C75.0377 60.565 73.7569 57.3617 70.7152 54.8328C68.7255 53.189 65.2263 52.5778 62.5733 50.8076C60.2406 49.2481 57.6334 47.8361 55.0261 46.3398C52.4418 44.8646 50.4292 42.3989 47.8677 41.1555C45.0089 39.7646 42.0129 38.8374 39.4972 37.889C36.0209 36.6035 32.7733 37.0882 30.6235 37.046C27.5131 36.9828 25.2261 37.7415 22.8018 39.7857C20.7435 41.5349 18.6623 43.5369 16.8327 46.0658C15.1631 48.3419 12.7617 50.3439 11.1151 52.7253C9.39979 55.191 7.50155 57.3195 5.60331 59.3427C2.92748 62.1666 1.14359 64.5059 0.27452 66.4026C-0.846128 68.8472 1.71535 70.9546 3.01896 74.4108C3.79655 76.455 3.49924 79.4054 4.94007 82.6298C6.26655 85.5591 7.50155 88.2988 9.33118 90.3641C11.4124 92.7033 13.3335 95.3376 15.7806 96.9814C18.365 98.7095 21.7955 99.2574 24.4485 100.733C27.1472 102.25 30.2804 103.219 32.6589 105.053C34.7859 106.654 36.9357 108.066 39.6115 108.045C42.1044 108.024 44.7116 106.992 47.2273 106.107C49.7431 105.221 52.1216 104.02 54.2028 102.819C57.1988 101.091 58.6396 98.7095 59.5316 97.7401C60.8809 96.2438 61.4984 94.1785 61.4756 91.4388Z" fill="#A1EB7C"/>
<path d="M37.6217 32.494C39.8859 33.4423 42.0815 30.8713 43.7739 27.8366C45.1232 25.3919 46.5869 22.7366 47.7076 20.9874C48.5766 19.6387 50.7951 17.468 53.3337 15.0445C55.3691 13.0845 57.1073 10.6399 58.5252 8.59572C60.4463 5.79283 60.9952 3.53788 58.3651 1.80979C54.866 -0.466233 51.3439 -0.508382 48.3479 1.30401C45.3977 3.09532 43.1106 6.36184 41.6698 9.1015C40.755 10.8717 38.9711 13.506 37.8733 16.5829C36.9356 19.1961 36.8441 22.2097 36.4096 24.7176C35.7235 28.4477 35.6778 31.6932 37.6217 32.494Z" fill="#A1EB7C"/>
<path d="M71.3327 15.7398C68.4053 19.765 66.5528 23.4952 66.0496 23.9167C62.0473 27.3307 66.8043 29.7543 71.0125 30.3654C72.7735 30.6394 75.5866 29.0377 78.6283 25.8977C80.618 23.8535 83.1338 21.7249 85.1921 19.3646C87.4105 16.8357 89.1258 14.096 90.9783 12.2626C93.8371 9.43862 94.203 6.50929 93.1281 4.57046C91.8702 2.29443 88.4168 0.945674 85.1235 1.78865C83.0652 2.29443 79.9777 4.73905 77.2332 7.94235C75.152 10.3448 73.1623 13.2109 71.3327 15.7398Z" fill="#A1EB7C"/>
<path d="M58.7311 30.4498C56.4898 30.3444 54.1799 30.9345 52.2816 32.0093C49.6516 33.5267 47.639 35.6762 48.5309 36.9618C50.0632 39.1535 53.9512 43.1576 58.4566 40.4601C60.6979 39.1535 63.328 36.8985 64.0599 34.6857C64.8146 32.4097 63.6482 30.6606 58.7311 30.4498Z" fill="#A1EB7C"/>
<path d="M92.4191 21.1559C90.2921 22.6732 87.5934 23.7691 85.4208 25.434C83.2481 27.0988 81.5785 29.3327 79.5888 30.9765C77.3247 32.8521 75.2435 34.6645 73.5511 36.3083C70.738 39.0269 68.5196 41.4504 68.4281 42.6938C68.2223 46.0868 70.738 48.2574 74.1228 47.7306C76.1125 47.4145 79.1543 46.6347 82.1503 44.7169C84.1858 43.4314 85.8096 40.1227 88.7827 37.8467C91.1612 36.0343 94.7061 35.0649 97.1761 33.0207C99.7147 30.8922 100.973 27.6046 103.031 25.6658C106.324 22.5678 108.909 20.4815 109.206 19.1327C110.144 15.1075 112.408 12.7261 106.622 12.2625C105.752 12.1782 103.397 15.1286 99.7833 17.4468C97.7479 18.7323 94.8205 19.4488 92.4191 21.1559Z" fill="#A1EB7C"/>
<path d="M86.1069 51.0393C83.271 52.4302 80.5265 53.4207 78.7198 54.7905C75.3578 57.3827 76.387 59.469 79.7032 60.2066C81.8987 60.6913 85.0091 59.2583 87.845 59.0686C91.0011 58.8789 94.02 58.9632 95.5752 58.036C97.4506 56.919 100.081 55.3385 102.894 53.4628C105.204 51.9455 107.376 49.9013 109.778 48.3207C112.385 46.6348 115.701 46.1079 117.874 44.8224C120.298 43.3893 121.739 41.4926 122.699 40.2492C124.323 38.1207 123.98 35.634 121.99 34.1798C120.778 33.2947 117.325 34.1588 114.1 35.634C111.928 36.6455 109.252 37.5939 107.102 38.8373C104.266 40.46 102.711 43.4104 101.453 44.0216C100.035 44.7381 96.4214 44.6959 93.0366 46.1501C90.5666 47.2248 88.6226 49.7959 86.1069 51.0393Z" fill="#A1EB7C"/>
<path d="M106.599 89.9847C106.85 87.519 105.547 85.0111 102.413 83.5149C100.172 82.4401 96.5586 82.6087 92.6478 83.6413C89.4917 84.4421 86.1755 85.6855 83.2938 87.0343C78.9256 89.0996 75.678 91.4177 75.495 92.5768C75.1977 94.7053 78.5139 95.8644 82.9736 96.4123C85.8553 96.7495 89.1944 96.5809 92.2819 96.5388C96.3757 96.4756 100.149 96.897 101.704 96.5599C104.152 96.033 106.301 92.8719 106.599 89.9847Z" fill="#A1EB7C"/>
</g>
<defs>
<clipPath id="clip0_61_202">
<rect width="123.729" height="108.064" fill="white"/>
</clipPath>
</defs>
</svg>
