<svg width="190" height="334" viewBox="0 0 190 334" fill="none" xmlns="http://www.w3.org/2000/svg">
<path fill-rule="evenodd" clip-rule="evenodd" d="M55.733 216.738C47.1376 218.713 35.9223 224.6 47.9387 229.907C38.5854 251.298 29.1672 244.713 45.7736 281.708C49.6491 290.348 52.0307 301.123 49.9306 311.22C47.2891 323.791 37.8709 327.642 35.2079 333.768C42.1362 332.411 49.2594 322.234 52.009 314.093C59.5003 292.124 40.599 270.354 39.7329 258.761C38.7586 245.691 46.6612 240.104 49.714 232.022C55.0402 232.841 58.7425 235.315 64.5883 234.177C65.9307 228.511 64.0254 224.32 63.4191 218.693C120.946 223.163 170.418 184.831 184.751 136.463C192.979 108.687 188.692 79.4745 176.892 55.6694C170.938 43.6372 163.1 34.8375 156.194 26.2972C152.621 21.8675 147.512 17.8567 142.619 14.6042C135.95 10.1545 133.114 8.53822 125.189 5.3855C97.1081 -5.82862 63.6573 1.93346 42.9156 15.2627C22.6503 28.2926 9.33489 46.5106 2.73133 76.0225C-3.54747 104.078 1.45392 134.887 13.0805 158.193C18.9696 170.006 24.8154 179.683 31.8736 189.281C38.4988 198.28 54.9103 215.441 55.733 216.758V216.738Z" fill="#FFA6AB"/>
<path fill-rule="evenodd" clip-rule="evenodd" d="M45.9463 38.6887C27.0233 47.2489 23.2993 75.4637 41.2697 68.4998C45.1452 67.0033 45.0802 63.8506 47.7217 59.6603C49.129 57.4454 47.6567 59.6203 49.1073 57.8045C49.3022 57.5651 50.8394 55.7493 51.0992 55.45C53.0478 53.295 53.1344 53.6142 55.0614 51.6987C62.4227 44.3357 54.9531 34.5982 45.9246 38.6887H45.9463Z" fill="#FFD8DA"/>
<path fill-rule="evenodd" clip-rule="evenodd" d="M60.842 27.2751C50.7959 32.1039 59.5429 42.3401 67.1424 38.6487C74.7203 34.9772 69.6756 23.005 60.842 27.2751Z" fill="#FFD8DA"/>
</svg>
