<svg width="208" height="99" viewBox="0 0 208 99" fill="none" xmlns="http://www.w3.org/2000/svg">
<path d="M20.0621 40.0433C20.0661 39.704 19.6616 39.2586 20.3515 39.0997C20.4102 39.3865 20.4694 39.6757 20.5281 39.9624C20.3728 39.9894 20.2148 40.0168 20.0621 40.0433Z" fill="#FFC305" fill-opacity="0.5"/>
<path d="M19.6853 40.5562C19.8112 40.3859 19.9367 40.2131 20.0632 40.0453C19.9372 40.2156 19.8112 40.3859 19.6853 40.5562Z" fill="#FFC305" fill-opacity="0.5"/>
<path d="M23.0188 33.033C23.063 32.9733 23.1208 32.8695 23.1414 32.8737C23.2525 32.9065 23.3552 32.9668 23.4612 33.0161C23.4032 33.0913 23.3485 33.1685 23.2932 33.2432C23.2027 33.173 23.1116 33.1003 23.021 33.03L23.0188 33.033Z" fill="#FFC305" fill-opacity="0.5"/>
<path d="M24.7604 29.5864C24.8113 29.5177 24.8532 29.4609 24.8952 29.4041C24.9666 29.4907 25.056 29.569 25.1016 29.6678C25.117 29.7016 25.0253 29.7774 24.9833 29.8342C24.9097 29.7506 24.833 29.665 24.7604 29.5864Z" fill="#FFC305" fill-opacity="0.5"/>
<path d="M127.279 36.1118C127.321 36.055 127.412 35.9793 127.397 35.9455C127.351 35.8468 127.262 35.7686 127.191 35.6821C127.149 35.7388 127.057 35.8146 127.072 35.8484C127.118 35.9446 127.207 36.0253 127.279 36.1118ZM133.537 34.8016C133.598 34.8404 133.68 34.925 133.717 34.9108C133.821 34.8693 133.909 34.7865 134.003 34.7208C133.941 34.682 133.859 34.5999 133.822 34.6116C133.718 34.6531 133.63 34.7359 133.537 34.8016ZM144.501 33.7257C144.574 33.8067 144.647 33.8902 144.723 33.9733C144.765 33.9166 144.857 33.8408 144.842 33.807C144.797 33.7108 144.707 33.6301 144.635 33.5436C144.593 33.6003 144.551 33.6571 144.501 33.7257ZM154.389 32.454C154.462 32.535 154.536 32.6186 154.612 32.7016C154.654 32.6449 154.746 32.5691 154.73 32.5353C154.685 32.4391 154.595 32.3584 154.524 32.2719C154.482 32.3287 154.44 32.3854 154.389 32.454ZM166.32 31.7202C166.393 31.8012 166.467 31.8847 166.543 31.9677C166.585 31.911 166.677 31.8353 166.661 31.8015C166.616 31.7052 166.526 31.6246 166.455 31.5381C166.413 31.5948 166.371 31.6515 166.32 31.7202ZM162.377 33.2009C162.326 33.2696 162.284 33.3263 162.242 33.3831C162.356 33.4128 162.469 33.4581 162.583 33.4644C162.623 33.4653 162.666 33.3589 162.708 33.3022C162.597 33.2694 162.486 33.2342 162.377 33.2009ZM161.127 34.1803C161.215 34.113 161.306 34.0452 161.396 33.975C161.334 33.9362 161.252 33.8516 161.215 33.8658C161.111 33.9073 161.024 33.9901 160.93 34.0559C160.991 34.0946 161.053 34.1334 161.127 34.1803ZM171.365 32.7543C171.44 32.8012 171.501 32.8399 171.563 32.8787C171.595 32.7742 171.647 32.6715 171.651 32.5642C171.652 32.5276 171.536 32.4878 171.475 32.449C171.439 32.5515 171.402 32.6569 171.365 32.7543ZM125.312 41.5115C125.385 41.5925 125.458 41.676 125.534 41.759C125.576 41.7023 125.668 41.6265 125.653 41.5928C125.608 41.4965 125.518 41.4159 125.447 41.3294C125.405 41.3861 125.363 41.4428 125.312 41.5115ZM125.979 42.4156C126.054 42.4625 126.115 42.5012 126.177 42.54C126.209 42.4355 126.261 42.3303 126.265 42.2255C126.266 42.1889 126.15 42.1491 126.089 42.1103C126.053 42.2128 126.015 42.3157 125.979 42.4156ZM126.9 43.3694C126.811 43.4342 126.721 43.5045 126.631 43.5747C126.693 43.6135 126.775 43.6956 126.811 43.6814C126.916 43.6399 127.003 43.5571 127.097 43.4939C127.036 43.4551 126.974 43.4164 126.9 43.3694ZM133.517 44.1617C133.579 44.2004 133.661 44.2851 133.698 44.2709C133.802 44.2294 133.889 44.1465 133.983 44.0808C133.922 44.0421 133.84 43.9575 133.803 43.9716C133.699 44.0131 133.611 44.096 133.517 44.1617ZM118.842 51.9003C118.791 51.969 118.749 52.0257 118.707 52.0825C118.82 52.1122 118.934 52.1601 119.048 52.1637C119.088 52.1647 119.131 52.0583 119.173 52.0016C119.061 51.9663 118.95 51.9336 118.842 51.9003ZM134.938 51.4296C134.863 51.3827 134.802 51.344 134.74 51.3052C134.708 51.4097 134.659 51.5145 134.652 51.6197C134.651 51.6563 134.766 51.6961 134.828 51.7349C134.863 51.6325 134.902 51.5296 134.937 51.4271L134.938 51.4296ZM113.897 60.7832C113.846 60.8518 113.804 60.9086 113.762 60.9653C113.876 60.9951 113.99 61.0429 114.103 61.0466C114.143 61.0475 114.186 60.9411 114.228 60.8844C114.117 60.8517 114.005 60.8164 113.897 60.7832ZM131.578 57.9376C131.652 57.9845 131.714 58.0233 131.775 58.062C131.808 57.9575 131.86 57.8548 131.863 57.7475C131.864 57.7109 131.749 57.6711 131.687 57.6323C131.652 57.7348 131.614 57.8402 131.578 57.9376ZM137.966 62.3344C138.008 62.2777 138.099 62.2019 138.084 62.1682C138.038 62.0694 137.949 61.9913 137.878 61.9048C137.836 61.9615 137.747 62.0368 137.762 62.0705C137.807 62.1668 137.894 62.2479 137.966 62.3344ZM129.545 64.5301C129.619 64.577 129.681 64.6158 129.742 64.6545C129.774 64.55 129.826 64.4448 129.83 64.34C129.831 64.3034 129.716 64.2636 129.654 64.2223C129.618 64.3248 129.581 64.4302 129.544 64.5276L129.545 64.5301ZM118.731 73.0919C118.805 73.1388 118.867 73.1775 118.928 73.2163C118.96 73.1118 119.01 73.0095 119.016 72.9018C119.017 72.8652 118.902 72.8254 118.84 72.7866C118.805 72.889 118.767 72.9919 118.731 73.0919ZM16.4709 92.9438C16.5439 93.0248 16.6174 93.1084 16.6937 93.1914C16.7357 93.1347 16.8274 93.0589 16.812 93.0251C16.7664 92.9264 16.677 92.8482 16.6057 92.7617C16.5637 92.8184 16.5217 92.8752 16.4709 92.9438ZM119.163 78.2363C119.089 78.1894 119.027 78.1507 118.966 78.1119C118.933 78.2164 118.881 78.3191 118.88 78.4259C118.879 78.4625 118.995 78.5024 119.054 78.5416C119.092 78.4387 119.127 78.3363 119.163 78.2363ZM108.396 26.5542C108.412 26.4812 108.452 26.3156 108.492 26.1526C108.353 26.1245 108.187 26.0416 108.083 26.0856C107.941 26.1493 107.846 26.3088 107.732 26.4249C107.87 26.453 108.009 26.481 108.393 26.5547L108.396 26.5542ZM149.185 32.2151C148.857 32.4153 148.738 32.4853 148.621 32.5578C148.774 32.6301 148.924 32.7445 149.082 32.7561C149.193 32.7628 149.318 32.6292 149.436 32.5567C149.334 32.4158 149.232 32.2773 149.185 32.2151ZM130.542 60.1131C130.431 59.9841 130.301 59.8298 130.173 59.675C130.117 59.7993 129.99 59.9409 130.021 60.037C130.081 60.2166 130.233 60.3697 130.349 60.5343C130.406 60.4126 130.46 60.2913 130.541 60.1106L130.542 60.1131ZM127.159 69.6512C127.301 69.7905 127.404 69.9521 127.458 69.9376C127.662 69.8891 127.849 69.7837 128.044 69.698C127.967 69.615 127.878 69.4536 127.811 69.4599C127.607 69.4823 127.408 69.5715 127.162 69.6482L127.159 69.6512ZM160.346 31.5214C160.517 31.791 160.59 31.9005 160.661 32.0131C160.887 31.7788 161.113 31.547 161.339 31.3151C161.207 31.2626 161.047 31.1421 160.949 31.1747C160.728 31.2521 160.539 31.4046 160.346 31.5214ZM160.008 33.1205C160.071 32.9768 160.207 32.7972 160.165 32.7446C160.015 32.565 159.812 32.4154 159.6 32.3014C159.569 32.286 159.379 32.5167 159.264 32.6329C159.512 32.7954 159.757 32.9559 160.008 33.1205ZM130.073 39.4516C130.246 39.7182 130.317 39.8307 130.388 39.9408C130.614 39.709 130.84 39.4747 131.066 39.2428C130.934 39.1903 130.774 39.0698 130.676 39.1024C130.455 39.1798 130.266 39.3323 130.073 39.4516ZM113.5 62.4108C113.685 62.67 113.761 62.7791 113.84 62.8877C114.05 62.6457 114.263 62.4057 114.476 62.1632C114.342 62.1162 114.178 62.0016 114.084 62.0388C113.87 62.1253 113.688 62.2844 113.502 62.4103L113.5 62.4108ZM137.644 60.5429C137.594 60.7519 137.505 60.9677 137.508 61.1858C137.508 61.2821 137.688 61.3757 137.787 61.4731C137.944 61.1959 138.099 60.9192 138.254 60.6425C138.114 60.62 137.977 60.597 137.641 60.5433L137.644 60.5429ZM115.114 67.8991C115.284 68.1661 115.358 68.2782 115.429 68.3908C115.655 68.159 115.881 67.9246 116.107 67.6928C115.975 67.6403 115.815 67.5198 115.718 67.5549C115.497 67.6323 115.308 67.7848 115.115 67.9016L115.114 67.8991ZM15.8771 89.9194C15.7188 89.7803 15.5471 89.6306 15.3754 89.4809C15.36 89.6813 15.2829 89.8976 15.3467 90.0713C15.4189 90.2721 15.6155 90.4331 15.7564 90.6116C15.7897 90.4159 15.8257 90.2197 15.8766 89.9168L15.8771 89.9194ZM169.431 34.6617C169.671 34.5238 169.91 34.3859 170.148 34.2484C169.901 34.0909 169.575 33.7545 169.429 33.8112C169.155 33.9186 168.983 34.2528 168.77 34.4953C168.973 34.5461 169.175 34.5968 169.431 34.6617ZM116.082 61.7648C115.919 62.1442 115.76 62.5101 115.625 62.8823C115.624 62.8903 115.875 63.0158 116.008 63.0162C116.143 63.0161 116.389 62.9344 116.394 62.8788C116.416 62.5445 116.394 62.2023 116.348 61.8694C116.34 61.8161 116.139 61.786 116.082 61.7648ZM203.116 58.5727C203.226 58.7488 203.254 58.8479 203.297 58.8509C203.401 58.8615 203.566 58.8667 203.605 58.8105C203.769 58.5895 203.924 58.3545 204.025 58.1028C204.062 58.0079 203.941 57.8597 203.892 57.7328C203.744 57.8055 203.542 57.843 203.455 57.9544C203.297 58.1589 203.201 58.4096 203.116 58.5702L203.116 58.5727ZM13.9645 90.4725C14.2654 90.743 13.8117 91.4488 14.5423 91.7097C14.4968 91.2258 14.4623 90.74 14.3999 90.2564C14.3641 89.9712 14.3055 89.6848 14.2157 89.4116C14.1974 89.3497 14.0025 89.3211 13.8851 89.3128C13.8509 89.311 13.7619 89.4279 13.7705 89.4836C13.8118 89.7679 13.8781 90.0504 13.965 90.4751L13.9645 90.4725ZM116.1 70.015C115.89 68.9612 115.822 68.8066 115.421 68.9568C114.289 69.3823 116.086 69.4788 115.596 69.8969C115.556 69.9326 115.593 70.0433 115.552 70.0815C114.966 70.6204 115.627 70.8881 115.913 70.9036C116.578 70.9442 116.071 70.4625 116.14 70.2215C116.156 70.1615 116.114 70.0828 116.1 70.015ZM119.547 62.8571C119.39 62.5746 119.256 62.3325 119.123 62.0929C118.919 62.3651 118.631 62.6128 118.532 62.9137C118.388 63.3575 118.4 63.842 118.308 64.3029C118.057 65.5825 117.73 66.8518 118.125 68.1622C118.224 68.4937 118.358 68.9284 118.211 69.1906C117.665 70.1753 118.059 70.57 119.114 70.7355C119.292 70.7619 119.416 71.0761 119.566 71.2582C119.581 71.0553 119.64 70.8473 119.603 70.6533C119.462 69.8686 119.227 69.0949 119.147 68.3048C119.072 67.5633 119.102 66.8034 119.164 66.0589C119.255 64.9867 119.414 63.9183 119.544 62.855L119.547 62.8571ZM138.387 43.5948C138.11 43.2369 137.834 42.8503 137.523 42.488C137.364 42.3049 137.077 42.006 136.961 42.0469C136.708 42.1325 136.397 42.3765 136.343 42.5991C136.252 42.9923 136.168 43.535 136.384 43.8176C137.568 45.3684 137.396 47.23 137.853 48.9408C137.986 49.4381 137.514 50.2877 137.778 50.502C138.73 51.2787 138.231 52.1094 138.279 52.978C138.391 55.0401 138.408 57.0797 138.056 59.121C138.032 59.2552 138.288 59.4318 138.416 59.5866C138.611 59.4227 138.995 59.2286 138.969 59.103C138.775 58.1271 138.567 57.1797 139.2 56.2476C139.331 56.0504 139.31 55.6715 139.199 55.4437C138.852 54.7285 139.4 54.0818 139.315 53.394C139.289 53.1851 139.418 52.9598 139.4 52.7495C139.381 52.5161 139.241 49.8083 139.252 49.6113C139.28 49.1016 139.893 48.6622 139.204 48.0402C138.781 47.6557 138.944 46.7583 138.569 46.2745C138.215 45.8154 138.051 45.4823 138.218 44.9485C138.34 44.5631 138.327 44.1412 138.39 43.5943L138.387 43.5948ZM131.253 49.5974C131.385 50.2407 131.494 50.8877 131.661 51.5223C131.725 51.7636 131.918 51.9773 132.052 52.2038C132.228 51.9625 132.448 51.7396 132.575 51.4782C132.721 51.1743 132.799 50.8381 132.882 50.5116C132.891 50.4735 132.684 50.33 132.623 50.3509C131.93 50.5753 131.841 50.1667 131.756 49.6975C131.614 48.9102 131.448 48.1247 131.268 47.344C131.244 47.239 131.073 47.162 130.97 47.0706C130.92 47.199 130.81 47.3352 130.828 47.4518C130.955 48.1687 131.109 48.8808 132.81 50.1076C132.823 50.1705 132.837 50.2358 132.85 50.2986C132.962 50.2401 133.093 50.1938 133.177 50.109C133.203 50.0837 133.093 49.9466 133.048 49.8609C132.968 49.9423 132.89 50.0262 131.258 49.5965L131.253 49.5974ZM112.339 68.1649C112.41 68.5117 112.452 68.8687 112.573 69.2014C112.604 69.2845 112.911 69.3639 113.041 69.3206C113.209 69.2627 113.468 68.9941 113.446 68.9588C113.008 68.3324 112.613 67.6984 112.519 66.9367C112.512 66.891 112.401 66.8558 112.336 66.815C112.266 66.9155 112.128 67.0254 112.139 67.1198C112.18 67.4718 112.267 67.8157 112.457 71.0872C112.558 71.5771 112.645 72.072 112.767 72.5607C112.797 72.6778 112.937 72.7706 113.026 72.8748C113.099 72.7738 113.249 72.6645 113.234 72.5786C113.052 71.5928 112.848 70.6109 112.63 69.6312C112.616 69.5609 112.46 69.5176 112.369 69.458C112.313 69.5823 112.193 69.7124 112.208 69.8269C112.266 70.2512 112.369 70.6705 112.34 68.17L112.339 68.1649ZM127.997 66.7424C127.812 66.6261 127.628 66.5099 127.443 66.3936C127.4 66.18 127.264 65.8055 127.325 65.7766C128.147 65.379 128.148 64.6113 128.402 63.94C129.009 62.3256 128.946 60.614 129.311 58.966C129.43 58.4301 129.77 57.9262 129.47 57.3434C129.38 57.1664 129.435 57.1595 129.965 57.2834C130.102 57.3144 130.347 57.2302 130.427 57.1252C130.726 56.7377 130.833 56.3938 131.6 56.7108C132.393 57.039 131.838 55.9149 132.362 55.7303C132.559 55.6597 133.077 55.7649 132.739 55.298C132.538 55.0181 132.294 54.7638 132.07 54.4982C131.99 54.5901 131.836 54.6898 131.847 54.7737C131.997 56.0174 130.777 55.2379 130.362 55.6377C130.319 55.4969 130.2 55.3276 130.246 55.2208C130.385 54.8973 130.749 54.5922 130.735 54.2902C130.71 53.644 130.461 53.0081 130.385 52.3579C130.326 51.8503 130.623 51.1378 130.348 50.8577C129.755 50.2477 130.833 49.6678 130.205 49.1653C130.006 49.0072 129.852 48.6541 129.674 48.6537C129.073 48.6515 129.212 49.0696 129.285 49.4264C129.405 49.9988 129.536 50.5669 129.628 51.144C129.659 51.3364 129.577 51.5431 129.548 51.7434C129.427 51.5952 129.245 51.4604 129.199 51.294C129.065 50.8021 129.003 50.2925 128.87 49.7977C128.818 49.6116 128.652 49.4504 128.541 49.2772C128.338 49.401 128.137 49.5243 127.936 49.645C127.842 49.461 127.748 49.277 127.654 49.093C127.556 49.2088 127.417 49.3136 127.367 49.4445C127.249 49.7617 127.17 50.0928 127.075 50.4163C126.893 50.7524 126.772 51.1377 126.519 51.4209C124.74 53.4107 123.913 55.8466 122.785 58.1396C121.931 59.8802 121.438 61.7716 121.167 63.6011C120.799 66.0795 120.87 68.6562 121.646 71.1365C121.793 71.6105 121.747 72.144 122.37 72.4028C122.565 72.486 122.676 72.7399 122.828 72.914C122.843 72.7111 122.771 72.4295 122.889 72.3179C123.536 71.6878 124.305 71.1563 124.886 70.4804C125.392 69.8929 125.695 69.156 126.104 68.4943C126.541 67.7888 127 67.095 127.452 66.3972C127.637 66.5135 127.822 66.6298 128.701 67.0677C129.938 66.879 130.164 66.5795 129.74 65.857C129.701 65.7884 129.457 65.8255 129.308 65.8124C129.552 66.7301 128.756 66.5743 128.232 66.7198C128.152 66.7415 128.099 66.8704 128.056 66.9612C128.05 66.9751 128.166 67.0721 128.231 67.0738C128.451 67.0851 128.669 67.0734 128.004 66.749L127.997 66.7424ZM120.854 59.2502C120.936 58.89 120.993 58.7291 120.999 58.5667C121.006 58.4354 120.95 58.2994 120.923 58.1663C120.788 58.2937 120.561 58.4087 120.541 58.5474C120.517 58.7076 120.682 58.8898 120.751 57.7954C120.902 57.9253 121.021 58.0269 121.141 58.1284C121.203 58.0162 121.339 57.8858 121.312 57.7917C121.264 57.6152 121.128 57.4593 121.027 57.2948C120.944 57.4419 120.862 57.5914 120.851 59.2507L120.854 59.2502ZM134.42 45.1264C134.352 45.1382 134.281 45.1505 134.213 45.1624C134.28 45.2679 134.327 45.3872 134.422 45.4644C134.449 45.4883 134.598 45.387 134.69 45.3423C134.602 45.2692 134.511 45.1991 133.037 45.0959C133.43 45.1707 133.602 45.2242 133.778 45.23C133.921 45.2365 134.068 45.1849 134.213 45.1598C134.074 45.0355 133.95 44.8281 133.799 44.8075C133.625 44.7856 133.431 44.9365 134.42 45.1239L134.42 45.1264ZM177.252 33.6683C177.363 33.7843 177.493 33.923 177.625 34.0588C177.683 33.9812 177.812 33.8702 177.789 33.8273C177.683 33.6246 177.534 33.437 177.402 33.2466C177.359 33.366 177.316 33.4854 178.141 33.7949C177.983 34.0565 177.878 34.1527 177.895 34.2201C177.941 34.4046 178.039 34.5801 178.118 34.7564C178.216 34.7133 178.402 34.6576 178.397 34.6325C178.347 34.4018 178.264 34.1768 177.254 33.6678L177.252 33.6683ZM132.36 36.1247C132.242 36.1947 132.121 36.2652 132.002 36.3326C132.153 36.4079 132.3 36.4812 132.635 36.5298C132.599 36.5881 132.478 36.7287 132.504 36.7606C132.776 37.0804 133.055 37.3962 133.369 37.6773C133.442 37.7427 133.685 37.7031 133.805 37.6407C133.917 37.5847 134.052 37.4287 134.042 37.3238C134.004 36.7943 133.197 36.3281 132.448 36.5519C132.418 36.4087 132.389 36.2655 132.32 35.9288C132.333 35.9916 132.346 36.0569 132.359 36.1197C132.471 36.0612 132.603 36.015 132.686 35.9276C132.712 35.9023 132.603 35.7677 132.554 35.68C132.475 35.7614 132.396 35.8453 132.359 36.1172L132.36 36.1247ZM163.447 30.4887C164.348 29.4475 165.542 29.2143 166.507 29.3929C168.545 29.7677 170.612 29.695 172.635 30.0411C172.86 30.0801 173.033 30.3311 173.253 30.4542C173.377 30.5237 173.585 30.6127 173.681 30.562C174.918 29.9311 176.031 30.6407 177.19 30.8168C177.246 31.9572 177.798 30.9064 178.105 30.9753C179.892 31.3756 181.669 31.7201 183.4 32.3876C185.057 33.0262 186.697 33.6782 188.337 34.3562C190.593 35.289 192.548 36.6072 194.41 37.975C196.598 39.5805 198.442 41.6101 200.045 43.736C201.253 45.3373 202.161 47.139 203.11 48.8945C204.127 50.776 204.923 52.7195 205.347 54.8185C205.759 56.8442 205.905 57.8206 205.679 58.8953C205.441 60.0322 204.827 60.615 203.58 60.7689C202.063 60.9542 200.593 61.3916 199.013 61.1194C197.317 60.8258 196.731 59.538 197.783 58.1975C197.882 58.0737 198.1 57.8849 198.067 57.8359C197.085 56.3725 196.727 54.6653 195.861 53.1348C195.008 51.628 194.1 50.1698 193.168 48.7078C190.883 45.1261 187.665 42.4453 183.89 40.2932C182.816 39.6807 181.567 39.3382 180.428 38.8178C179.867 38.5612 179.257 38.2405 179.92 37.5087C180.005 37.4133 179.852 37.1354 179.807 36.9429C179.656 37.0341 179.515 37.1575 179.348 37.2099C178.995 37.318 178.425 37.5653 178.298 37.4442C177.52 36.6893 176.55 37.1155 175.699 36.9326C174.841 36.7486 174.028 36.2652 173.274 35.8055C172.551 35.3637 171.871 35.0031 170.951 35.0873C170.73 35.1075 170.586 34.9034 170.259 35.1502C169.657 35.6008 168.967 35.5645 168.133 35.3396C167.525 35.1773 167.436 34.9924 167.317 34.5759C167.272 34.425 167.08 34.3127 166.954 34.1835C166.934 34.3874 166.969 34.6129 166.883 34.7865C166.699 35.1541 165.938 35.1457 166.019 34.9755C166.244 34.5045 166.316 33.9301 165.694 34.4205C164.843 35.0886 164.303 35.1251 163.491 34.561C163.215 34.3721 162.804 34.3342 162.446 34.2663C162.299 34.2371 162.132 34.3181 161.972 34.3511C162.169 35.1209 161.838 34.7283 161.342 34.7441C159.749 34.7917 158.133 34.5883 156.541 35.0154C155.849 35.2007 155.13 35.4816 154.268 35.1862C153.819 35.0326 153.11 35.5618 152.504 35.745C152.031 35.887 151.55 35.9627 151.492 35.2676C151.49 35.2445 150.878 35.1503 150.726 35.2731C150.149 35.7349 149.683 36.3569 148.748 35.9755C148.696 35.9559 148.38 36.2475 148.39 36.381C148.443 36.9677 148.285 36.925 147.79 36.6987C147.612 36.6151 147.22 36.9901 146.899 37.09C144.575 37.8109 142.464 38.9216 140.353 40.0504C139.948 40.2664 139.545 40.391 139.292 40.7785C138.912 41.3622 139.597 41.4592 139.778 41.7895C139.931 42.0674 139.928 42.5077 139.799 42.8007C139.628 43.179 139.537 43.4368 139.943 43.7123C140.221 43.9008 140.457 44.1434 140.711 44.3622C140.467 44.5086 140.221 44.658 139.978 44.8069C140.171 45.005 140.361 45.2035 140.458 45.6238C140.442 45.762 140.517 45.676 140.594 45.5951C140.513 45.5441 140.428 45.4911 140.347 45.4401C140.294 45.5378 140.229 45.6324 140.193 45.7348C140.186 45.7518 140.301 45.8046 140.459 45.6263C140.733 45.4927 141.055 45.5618 141.068 45.6637C141.204 46.8421 141.919 47.9748 141.362 49.2242C141.236 49.5062 141.446 49.9381 141.559 50.2853C142.213 52.2794 141.653 54.2864 141.622 56.2824C141.582 58.6519 140.914 60.9561 140.12 63.1939C139.928 63.7319 140.668 64.7561 139.36 64.8713C139.154 65.5186 138.948 66.1683 138.736 66.8115C138.521 67.4576 138.378 68.1356 138.061 68.7371C137.721 69.3814 137.218 69.9528 136.779 70.5545C136.338 71.1567 135.925 71.7827 135.437 72.3512C134.875 73.0083 134.174 73.5671 133.666 74.2538C133.136 74.9729 132.09 74.9384 131.555 75.7963C131.205 76.3618 129.899 76.3492 129.21 76.8279C128.377 77.4044 127.615 77.9842 126.609 78.3462C126.162 78.5045 125.929 78.7583 125.445 78.4624C125.009 78.1946 124.807 78.5836 124.527 78.8325C124.235 79.0967 123.834 79.1818 123.659 78.5461C123.652 78.5134 123.666 78.5787 123.679 78.6416C123.79 78.5805 123.922 78.5368 124.003 78.4499C124.029 78.4246 123.919 78.2875 123.874 78.2043C123.795 78.2857 123.716 78.3697 123.656 78.5466C123.145 79.2859 122.419 78.9408 121.765 79.0363C120.387 79.239 119.096 79.0234 117.82 78.7323C117.287 78.6114 116.409 78.7978 116.232 77.9204C116.218 77.8525 115.662 77.7981 115.4 77.8671C114.659 78.0634 114.187 78.0204 114.18 77.1447C114.173 76.4928 113.217 77.0178 112.929 76.2431C112.62 75.4094 112.225 74.5829 112.038 73.6994C111.693 72.0681 111.367 70.4334 111.033 68.8002C111.877 67.6596 111.984 66.556 110.861 65.4943C110.77 65.4086 110.788 65.2207 110.753 65.0784C110.914 65.0505 111.074 64.994 111.233 64.9977C111.676 65.0118 112.13 65.0086 112.549 65.1127C112.635 65.1342 112.591 65.5946 112.608 65.8545C113.293 65.8135 113.84 64.9562 113.635 64.2555C113.606 64.1565 113.615 64.0482 113.61 63.9449C113.601 63.7878 113.595 63.6328 113.586 63.4783C113.383 63.5524 113.104 63.5775 112.999 63.7154C112.89 63.8566 112.986 64.1209 112.917 64.3072C112.881 64.4071 112.669 64.5298 112.564 64.5116C112.374 64.4796 112.106 64.3805 112.053 64.2491C111.919 63.9107 111.879 63.5377 111.814 63.1769C111.725 62.6851 112.883 62.5021 112.175 61.8238C111.405 61.0831 112.696 60.7601 112.637 60.1693C112.562 59.4459 113.076 59.2371 113.615 58.9068C113.84 58.7687 113.658 58.129 113.746 57.7312C114.029 56.4514 114.041 56.4571 115.28 57.0357C115.433 57.108 115.629 57.1025 115.807 57.1314C115.807 56.9935 115.832 56.8514 115.802 56.7187C115.754 56.5136 115.697 56.3049 115.592 56.1203C115.062 55.174 115.041 54.902 115.97 54.6183C116.703 54.3948 116.737 54.1495 116.645 53.5618C116.601 53.278 116.862 52.7617 117.12 52.6676C117.658 52.4702 117.788 52.2785 117.725 51.7402C117.684 51.3858 118.055 50.663 118.203 50.6711C119.353 50.7318 119.127 49.738 119.576 49.2854C120.749 48.1087 121.91 46.9183 123.107 45.7634C123.719 45.1706 124.31 44.4306 125.078 44.1332C126.096 43.7432 125.735 43.1657 125.389 42.8407C124.659 42.1531 124.174 41.3005 123.323 40.6728C122.492 40.0574 121.715 39.3387 121.118 38.3912C120.625 37.6103 119.265 37.2376 118.228 36.819C117.294 36.4427 116.228 36.3363 115.301 35.9455C114.538 35.6226 113.74 35.5115 112.994 35.2715C112.242 35.0325 111.617 34.886 110.809 34.8962C110.275 34.9031 109.735 34.237 109.193 33.8758C109.062 33.7917 108.916 33.726 108.78 33.6534C108.202 34.6463 107.171 33.8703 106.367 34.1477C105.554 34.4321 104.403 34.6111 103.704 34.2849C102.677 33.8048 101.774 34.7396 100.771 34.1279C100.34 33.8671 99.422 34.2762 98.7234 34.3923C97.7116 34.5627 96.6824 34.6764 95.6945 34.9363C94.7606 35.1843 93.7406 34.9841 92.8774 35.7844C92.2418 36.3735 90.8263 35.771 90.186 36.7643C88.5054 36.9623 87.118 37.9031 85.5872 38.364C83.1287 39.103 81.1905 40.5922 78.9355 41.5951C76.6209 42.624 74.6687 44.1962 72.5695 45.5468C70.8967 46.623 69.5291 48.1432 67.5061 48.7494C66.2397 50.5018 64.2698 51.5879 62.671 53.0259C60.848 54.6642 59.0874 56.3593 57.2763 58.0007C56.3573 58.8316 55.686 59.825 54.7362 60.643C52.7019 62.3934 50.9655 64.4407 49.162 66.4087C48.0157 67.6589 47.0455 69.0528 45.8535 70.2589C44.5729 71.5558 43.5203 73.0161 42.1722 74.2727C41.0494 75.3211 40.3295 76.7106 39.1478 77.7744C38.1635 78.6582 37.2577 79.6637 36.5511 80.7465C35.8573 81.8089 34.9829 82.7751 34.1705 83.6993C33.3013 84.6907 32.5905 85.808 31.6384 86.7253C30.7573 87.5755 30.1103 88.6324 29.0057 89.2873C28.9176 89.339 28.8941 89.4862 28.8423 89.5915C28.9861 89.6185 29.1364 89.6913 29.2705 89.6707C29.971 89.5646 30.6664 89.3919 31.3725 89.3266C31.9627 89.2735 32.4978 89.0349 33.1898 89.2452C33.6591 89.3876 34.344 88.8602 34.9549 88.7021C35.5631 88.5444 36.1948 88.4738 36.8187 88.3655C37.5189 88.2439 38.2192 88.1224 38.9194 88.0008C39.5406 87.893 40.1618 87.7851 40.7858 87.6768C41.486 87.5553 42.203 87.488 42.8801 87.295C43.4345 87.1363 43.9178 86.7272 44.4771 86.6197C45.093 86.4998 45.989 86.8386 46.3465 86.5449C46.8972 86.0929 47.5977 86.2757 48.0231 85.9417C48.6679 85.4394 49.3785 86.526 50.0595 85.6766C50.3724 85.2892 51.4328 85.4798 52.0881 85.249C53.7563 84.6602 55.3775 85.2608 57.0175 85.3195C57.1708 85.3242 57.3859 85.534 57.4493 85.6921C57.8489 86.6792 57.6028 87.0758 56.5657 87.7294C55.4908 88.4051 54.4009 88.9248 53.0927 89.1363C52.1447 89.2878 51.2558 89.7284 50.3354 90.0286C49.4155 90.3314 48.2671 90.0416 47.5719 90.9455C47.5051 91.0326 47.2705 91.0031 47.1189 91.0346C44.1784 91.6933 41.2333 92.3295 38.3059 93.025C37.2883 93.2641 36.3276 93.7119 35.3121 93.9611C34.2453 94.2217 33.0189 94.1432 32.0782 94.5927C30.5875 95.3043 28.8656 95.2181 27.4623 95.8468C25.0727 96.9225 22.4933 96.9748 20.0068 97.4949C18.6085 97.7897 17.0551 98.0438 16.557 96.1345C16.5024 95.9228 16.0309 95.8251 15.8246 95.6164C15.6402 95.4324 15.5487 95.1647 15.4193 94.9322C15.6574 94.9793 15.8943 95.0475 16.1324 95.053C16.1835 95.0545 16.3228 94.7701 16.2769 94.6974C16.1284 94.4682 15.8781 94.2931 15.7269 94.0644C15.3507 93.4948 15.7766 92.6533 14.997 92.2084C15.0674 92.8414 15.1405 93.474 15.1999 94.109C15.2058 94.1652 15.1174 94.2846 15.0827 94.2803C14.9643 94.267 14.7721 94.2379 14.7473 94.172C14.3241 92.9731 13.9326 91.7635 13.5088 90.5621C13.1814 89.638 12.7525 88.7419 12.484 87.8023C12.2007 86.8185 12.3209 85.6554 11.7901 84.8265C10.8763 83.3953 11.0674 81.7515 10.4135 80.335C9.2026 77.7143 8.98092 74.9088 8.28398 72.1937C8.20487 71.89 7.69506 71.6324 7.71225 71.3718C7.72847 71.1478 8.23359 70.9691 8.47292 70.7324C8.5362 70.6694 8.43371 70.4582 8.39843 70.3134C8.19994 69.523 8.52748 69.6483 9.04131 69.9806C9.33385 70.1692 9.86237 70.78 9.75212 69.7453C9.72777 69.5024 10.0759 69.2182 10.0367 68.9856C9.88531 68.122 9.88901 67.7128 11.0633 68.2115C11.7056 68.4825 12.0519 67.8864 11.7084 67.1732C11.3097 66.3421 11.3864 66.2482 12.4919 66.1629C12.6002 66.1545 12.7281 66.1037 12.804 66.0333C13.2162 65.6625 13.2478 65.6518 13.2892 65.9231C13.3666 66.4248 13.4507 66.9046 14.0089 67.1642C13.2555 67.8804 14.2796 67.8665 14.4995 68.1822C14.6193 68.354 14.7685 68.518 14.8272 68.7082C15.6205 71.2739 16.7736 73.7226 17.4782 76.3375C18.0338 78.4033 18.4209 80.5426 19.1949 82.5314C19.8015 84.0888 20.2031 85.6505 20.5716 87.244C20.598 87.3591 20.7579 87.451 20.8551 87.5538C20.9446 87.4394 21.0676 87.3374 21.1207 87.2111C21.2243 86.9589 21.4155 86.6525 21.3408 86.4391C20.9902 85.4436 21.3517 84.2464 20.3128 83.4302C20.1242 83.2808 20.1724 82.8821 20.0952 82.6015C19.529 80.6078 19.1748 78.5331 18.318 76.6497C17.7078 75.3089 17.6498 73.8541 17.0238 72.6019C16.189 70.9358 16.0149 69.1759 15.5286 67.4624C15.2842 66.5993 14.6128 65.8832 14.512 64.9224C14.4295 64.1197 14.604 64.4068 15.2448 64.3945C16.442 64.3714 16.7115 65.2743 17.0617 65.786C17.6894 66.7022 17.8884 67.8671 18.2665 68.9281C18.6445 69.9892 19.0389 71.0474 19.3951 72.1122C19.7293 73.1106 19.5194 74.2763 20.4839 75.0872C20.5759 75.1649 20.5437 75.3656 20.5812 75.5074C21.2796 78.1469 21.9725 80.7873 22.6954 83.4225C22.8034 83.8122 23.0115 84.195 23.2528 84.533C23.3518 84.672 23.8335 85.0541 23.8488 84.5362C23.8891 83.093 25.6766 82.9075 26.0894 81.6988C26.2781 81.1457 26.9417 80.7078 27.2496 80.1028C27.3765 79.8544 27.8631 79.7647 28.2894 79.5866C28.3248 79.5804 28.254 79.5927 28.1859 79.6046C28.2521 79.7075 28.3023 79.8289 28.3944 79.9066C28.4219 79.9305 28.5704 79.8292 28.6634 79.7871C28.575 79.7139 28.484 79.6413 28.2926 79.5886C28.9238 78.1651 29.7884 76.8206 31.4113 75.9275C31.4467 75.9213 31.3759 75.9336 31.3078 75.9454C31.3713 76.0489 31.4243 76.1698 31.5163 76.2475C31.5438 76.2713 31.6896 76.1706 31.7853 76.1279C31.6975 76.0573 31.6059 75.9821 31.4146 75.9295C31.5733 75.189 31.8662 74.4695 32.8908 74.3202C33.0499 74.2978 33.2601 74.0844 33.3011 73.9263C33.6506 72.5048 34.8578 71.8139 36.0602 71.1134C36.1839 71.0425 36.4387 70.9774 36.4316 70.9292C36.3704 70.3544 37.1569 70.1034 37.1634 69.8733C37.2092 68.429 38.8015 68.1032 39.4001 67.0443C39.9821 66.0144 41.0312 65.213 41.8733 64.3096C42.3679 63.7762 42.8453 63.2276 43.3533 62.7049C43.803 62.2417 44.2937 61.8131 44.7504 61.3565C45.3634 60.7401 45.8447 59.8109 46.5959 59.566C47.3972 59.3046 46.9234 58.7129 47.347 58.4391C47.7684 58.1682 48.1586 57.8142 48.4574 57.4267C49.2034 56.4541 50.1025 55.6085 51.1517 54.945C52.2929 54.2213 53.0224 53.1814 53.9227 52.2731C54.4251 51.7644 54.8917 51.163 55.515 50.831C56.5432 50.2856 57.22 49.5671 57.8929 48.6645C58.6769 47.6151 59.8563 46.7885 60.8847 45.8996C62.7004 44.3355 64.7268 42.9741 66.7181 41.5928C68.0619 40.6596 69.452 39.773 70.7313 38.7729C71.9761 37.7971 73.373 37.068 74.7677 36.3419C75.5452 35.9363 75.9109 35.1729 76.8895 34.8677C78.3883 34.402 79.6975 33.4513 81.0715 32.6794C82.3799 31.9449 83.7518 31.3008 85.0769 30.579C86.0921 30.0255 87.352 29.8536 88.4833 29.4673C89.032 29.2809 89.5247 28.9586 90.0741 28.7618C92.7013 27.8269 95.3361 26.9428 98.1212 26.4203C99.6723 26.1276 101.127 25.1569 102.739 25.2701C104.238 25.374 105.631 24.9969 107.067 24.9557C108.461 24.9141 109.902 25.036 111.281 25.0023C114.293 24.9269 117.132 25.4957 119.976 26.2379C122.488 26.8945 124.85 27.9026 127.192 28.948C127.741 29.1935 128.202 29.6105 128.683 29.9745C128.843 30.0951 128.893 30.3804 129.061 30.4448C131.328 31.3471 132.95 32.4211 134.341 33.9621C134.954 34.6389 135.562 35.3243 136.216 35.968C136.375 36.1251 136.721 36.2315 136.955 36.2013C138.488 36.0002 139.743 35.2957 140.842 34.3088C141.138 34.0441 141.538 33.9616 141.601 34.7234C141.584 34.8617 141.66 34.7782 141.736 34.6948C141.655 34.6438 141.571 34.5907 141.49 34.5397C141.437 34.6375 141.372 34.7321 141.336 34.8345C141.328 34.8515 141.444 34.9068 141.602 34.7259C142.658 33.892 143.618 33.2752 144.587 32.6751C144.707 32.5996 144.928 32.5483 145.043 32.5986C145.422 32.767 145.771 32.9873 146.131 33.1877C146.299 32.862 146.006 32.4106 146.752 32.2629C150.4 31.5333 153.939 30.3648 157.664 29.9549C158.116 29.905 158.7 29.71 159.006 29.8937C160.415 30.7393 161.546 30.2723 162.788 29.5441C163.448 29.1563 163.433 29.8848 163.448 30.4912C163.427 30.6274 163.507 30.546 163.583 30.4625C163.502 30.4115 163.418 30.3585 163.336 30.305C163.283 30.4027 163.217 30.4973 163.182 30.5998C163.177 30.6162 163.29 30.6721 163.45 30.4907L163.447 30.4887Z" fill="#FFC305" fill-opacity="0.5"/>
<path d="M110.326 68.2017C110.388 67.9514 110.435 67.7662 110.481 67.5785C110.628 67.8446 110.811 68.102 110.911 68.3841C110.956 68.5065 110.836 68.6784 110.787 68.8275C110.635 68.6196 110.479 68.4096 110.324 68.2047L110.326 68.2017Z" fill="#FFC305" fill-opacity="0.5"/>
<path d="M110.315 70.2976C110.368 70.14 110.429 69.955 110.489 69.7674C110.587 69.8623 110.764 69.954 110.771 70.057C110.787 70.2444 110.705 70.4382 110.666 70.63C110.564 70.5356 110.465 70.4382 110.315 70.2976Z" fill="#FFC305" fill-opacity="0.5"/>
<path d="M129.641 53.0588C129.558 52.8311 129.462 52.6499 129.434 52.4593C129.424 52.3985 129.603 52.3181 129.692 52.2452C129.785 52.4244 129.9 52.5973 129.952 52.7835C129.965 52.8334 129.79 52.9289 129.641 53.0563L129.641 53.0588Z" fill="#FFC305" fill-opacity="0.5"/>
<path d="M127.274 50.3698C127.362 50.4431 127.454 50.5158 127.541 50.5865C127.448 50.6287 127.3 50.73 127.272 50.7061C127.18 50.6283 127.131 50.5094 127.066 50.4033C127.135 50.3915 127.205 50.3792 127.274 50.3673L127.274 50.3698Z" fill="#FFC305" fill-opacity="0.5"/>
</svg>
